nColumns=19
nRows=89
DataType=double
version=3
OpenSimVersion=4.1
endheader
time	ground_force_1_vx	ground_force_1_vy	ground_force_1_vz	ground_force_1_px	ground_force_1_py	ground_force_1_pz	ground_force_1_mx	ground_force_1_my	ground_force_1_mz	ground_force_2_vx	ground_force_2_vy	ground_force_2_vz	ground_force_2_px	ground_force_2_py	ground_force_2_pz	ground_force_2_mx	ground_force_2_my	ground_force_2_mz
3.54167	-15.4782	63.7551	-5.1988	1.16098	0	-0.283956	-0	3.00523	-0	0	0	0	-0.000610902	0	-0.00139145	0	0	0
3.55	-31.1434	168.698	-6.51766	1.14822	0	-0.311445	-0	14.3318	-0	0	0	0	-0.000610867	0	-0.00139141	0	0	0
3.55833	-48.1353	380.401	-1.96905	1.14526	0	-0.321735	-0	21.5117	-0	0	0	0	-0.000610832	0	-0.00139137	0	0	0
3.56667	-65.9412	698.772	14.8466	1.1404	0	-0.324692	-0	15.2276	-0	0	0	0	-0.000610798	0	-0.00139133	0	0	0
3.575	-97.359	1023.79	43.5041	1.1318	0	-0.325184	0	-3.89767	0	0	0	0	-0.000610763	0	-0.00139129	0	0	0
3.58333	-150.825	1228.05	71.3902	1.1212	0	-0.325464	0	-21.6951	0	0	0	0	-0.000610729	0	-0.00139125	0	0	0
3.59167	-208.642	1312.17	81.3618	1.10708	0	-0.326716	0	-22.1152	0	0	0	0	-0.000610696	0	-0.00139121	0	0	0
3.6	-240.924	1379.67	69.4573	1.08518	0	-0.328977	0	-4.26533	0	0	0	0	-0.000610662	0	-0.00139117	0	0	0
3.60833	-229.738	1492.78	51.1527	1.05518	0	-0.330179	-0	15.2207	-0	0	0	0	-0.000610629	0	-0.00139113	0	0	0
3.61667	-184.472	1636.42	44.3735	1.023	0	-0.32865	-0	19.5852	-0	0	0	0	-0.000610597	0	-0.00139109	0	0	0
3.625	-129.508	1760.11	49.6121	0.993914	0	-0.325794	-0	9.43812	-0	0	0	0	-0.000610565	0	-0.00139105	0	0	0
3.63333	-76.0086	1824.01	52.8937	0.967718	0	-0.324013	0	-0.478242	0	0	0	0	-0.000610533	0	-0.00139101	0	0	0
3.64167	-25.5682	1820.7	46.0073	0.94254	0	-0.323935	-0	0.126352	-0	0	0	0	-0.000610501	0	-0.00139098	0	0	0
3.65	19.0207	1768.7	35.9397	0.917853	0	-0.323857	-0	7.13743	-0	0	0	0	-0.00061047	0	-0.00139094	0	0	0
3.65833	53.9403	1687.47	32.9221	0.894239	0	-0.322156	-0	11.0339	-0	0	0	0	-0.000610439	0	-0.0013909	0	0	0
3.66667	81.8312	1580.18	36.717	0.871311	0	-0.319708	-0	9.65562	-0	0	0	0	-0.000610409	0	-0.00139087	0	0	0
3.675	108.981	1443.7	40.2121	0.847321	0	-0.318826	-0	7.59802	-0	0	0	0	-0.000610379	0	-0.00139083	0	0	0
3.68333	135.226	1280.7	41.9822	0.821911	0	-0.320215	-0	6.49801	-0	0	0	0	-0.000610349	0	-0.0013908	0	0	0
3.69167	155.803	1099.37	47.446	0.796318	0	-0.321831	-0	2.53415	-0	0	0	0	-0.00061032	0	-0.00139076	0	0	0
3.7	170.696	904.652	57.7238	0.769422	0	-0.321547	0	-5.71185	0	0	0	0	-0.000610291	0	-0.00139073	0	0	0
3.70833	181.524	699.912	64.3549	0.736859	0	-0.320089	0	-12.3247	0	0	0	0	-0.000610263	0	-0.00139069	0	0	0
3.71667	179.641	501.225	58.5889	0.698357	0	-0.319687	0	-10.5544	0	0	0	0	-0.000610234	0	-0.00139066	0	0	0
3.725	153.558	331.373	42.3021	0.661721	0	-0.321229	0	-1.82159	0	0	0	0	-0.000610207	0	-0.00139063	0	0	0
3.73333	109.902	204.811	25.651	0.639895	0	-0.320781	-0	5.51721	-0	0	0	0	-0.00061018	0	-0.0013906	0	0	0
3.74167	65.9715	121.509	15.4991	0.649216	0	-0.307479	-0	5.9104	-0	0	0	0	-0.000610153	0	-0.00139056	0	0	0
3.75	34.2173	68.7199	10.1487	0.679065	0	-0.276005	-0	1.88246	-0	0	0	0	-0.000610127	0	-0.00139053	0	0	0
3.75833	16.4561	34.4643	5.24521	0.692103	0	-0.234759	0	-0.975837	0	0	0	0	-0.000610101	0	-0.0013905	0	0	0
3.76667	6.88527	14.3992	0.715442	-0.000609766	0	-0.00139	0	0	0	0	0	0	-0.000610075	0	-0.00139047	0	0	0
3.775	0	0	0	-0.000609742	0	-0.00138997	0	0	0	0	0	0	-0.00061005	0	-0.00139044	0	0	0
3.78333	0	0	0	-0.000609718	0	-0.00138994	0	0	0	0	0	0	-0.000610025	0	-0.00139041	0	0	0
3.79167	0	0	0	-0.000609694	0	-0.00138992	0	0	0	-1.40309	11.0285	3.31485	-0.000610001	0	-0.00139039	0	0	0
3.8	0	0	0	-0.000609671	0	-0.00138989	0	0	0	0	0	0	-0.000609978	0	-0.00139036	0	0	0
3.80833	0	0	0	-0.000609648	0	-0.00138986	0	0	0	0	0	0	-0.000609954	0	-0.00139033	0	0	0
3.81667	0	0	0	-0.000609626	0	-0.00138984	0	0	0	0	0	0	-0.000609931	0	-0.0013903	0	0	0
3.825	0	0	0	-0.000609604	0	-0.00138981	0	0	0	0	0	0	-0.000609909	0	-0.00139028	0	0	0
3.83333	0	0	0	-0.000609583	0	-0.00138979	0	0	0	0.258261	10.5208	2.95769	-0.000609887	0	-0.00139025	0	0	0
3.84167	0	0	0	-0.000609562	0	-0.00138977	0	0	0	0.869473	10.0618	1.24362	-0.000609866	0	-0.00139023	0	0	0
3.85	0	0	0	-0.000609542	0	-0.00138974	0	0	0	0	0	0	-0.000609845	0	-0.0013902	0	0	0
3.85833	0	0	0	-0.000609522	0	-0.00138972	0	0	0	-3.57057	18.9305	-5.05153	1.06877	0	-0.227398	0	-0.791501	0
3.86667	0	0	0	-0.000609502	0	-0.0013897	0	0	0	-11.5872	55.2483	-8.16583	1.15491	0	-0.286398	-0	0.367227	-0
3.875	0	0	0	-0.000609483	0	-0.00138968	0	0	0	-28.0748	153.731	-13.2394	1.18528	0	-0.311214	0	-0.298034	0
3.88333	0	0	0	-0.000609465	0	-0.00138966	0	0	0	-55.8394	363.869	-19.7498	1.19167	0	-0.31747	0	-4.50092	0
3.89167	0	0	0	-0.000609447	0	-0.00138964	0	0	0	-96.5823	698.206	-25.2382	1.18658	0	-0.315182	0	-12.0967	0
3.9	0	0	0	-0.000609429	0	-0.00138962	0	0	0	-150.349	1058.17	-30.6821	1.1769	0	-0.310432	0	-17.0415	0
3.90833	0	0	0	-0.000609412	0	-0.0013896	0	0	0	-208.902	1286.45	-42.7683	1.16569	0	-0.306543	0	-10.4949	0
3.91667	0	0	0	-0.000609396	0	-0.00138958	0	0	0	-253.677	1350.53	-65.1175	1.15249	0	-0.306015	-0	7.93701	-0
3.925	0	0	0	-0.000609379	0	-0.00138956	0	0	0	-273.842	1365.48	-86.7782	1.13433	0	-0.30905	-0	24.173	-0
3.93333	0	0	0	-0.000609364	0	-0.00138954	0	0	0	-273.313	1435.57	-88.7304	1.10985	0	-0.311362	-0	21.4266	-0
3.94167	0	0	0	-0.000609349	0	-0.00138952	0	0	0	-250.894	1570.24	-67.2418	1.08067	0	-0.309986	-0	0.015537	-0
3.95	0	0	0	-0.000609334	0	-0.00138951	0	0	0	-204.589	1715.24	-42.2642	1.04972	0	-0.308008	0	-20.0714	0
3.95833	0	0	0	-0.00060932	0	-0.00138949	0	0	0	-145.359	1813.67	-34.7921	1.02031	0	-0.308946	0	-20.7019	0
3.96667	0	0	0	-0.000609306	0	-0.00138948	0	0	0	-89.7242	1848.98	-42.0987	0.99401	0	-0.311991	0	-5.92294	0
3.975	0	0	0	-0.000609293	0	-0.00138946	0	0	0	-46.6437	1840.17	-44.4395	0.970253	0	-0.314104	-0	4.65723	-0
3.98333	0	0	0	-0.00060928	0	-0.00138945	0	0	0	-12.5638	1807.29	-32.699	0.947597	0	-0.314053	-0	0.348242	-0
3.99167	0	0	0	-0.000609268	0	-0.00138943	0	0	0	21.6828	1746.98	-18.7994	0.925497	0	-0.313896	0	-9.93944	0
4	0	0	0	-0.000609256	0	-0.00138942	0	0	0	57.4921	1648.49	-17.519	0.903618	0	-0.315755	0	-12.2684	0
4.00833	0	0	0	-0.000609245	0	-0.00138941	0	0	0	89.8194	1518.97	-27.6232	0.881387	0	-0.318617	0	-5.57014	0
4.01667	0	0	0	-0.000609235	0	-0.00138939	0	0	0	113.577	1373.89	-36.9103	0.85925	0	-0.319577	-0	0.128136	-0
4.025	0	0	0	-0.000609224	0	-0.00138938	0	0	0	129.648	1215.04	-39.9347	0.837431	0	-0.317739	0	-0.795984	0
4.03333	0	0	0	-0.000609215	0	-0.00138937	0	0	0	139.431	1031.3	-42.3896	0.815601	0	-0.315415	0	-3.03107	0
4.04167	0	0	0	-0.000609206	0	-0.00138936	0	0	0	141.779	819.039	-48.985	0.792571	0	-0.315057	-0	0.169291	-0
4.05	0	0	0	-0.000609197	0	-0.00138935	0	0	0	134.479	594.674	-54.688	0.764601	0	-0.316941	-0	6.7298	-0
4.05833	0	0	0	-0.000609189	0	-0.00138934	0	0	0	117.882	391.388	-51.1181	0.72835	0	-0.31828	-0	8.63139	-0
4.06667	0	0	0	-0.000609181	0	-0.00138933	0	0	0	93.8183	237.31	-37.5197	0.693346	0	-0.313201	-0	2.60515	-0
4.075	0	0	0	-0.000609174	0	-0.00138933	0	0	0	63.5506	132.903	-21.646	0.684651	0	-0.299195	0	-5.93249	0
4.08333	0	0	0	-0.000609168	0	-0.00138932	0	0	0	33.0458	65.4917	-11.0521	0.732657	0	-0.2823	0	-9.73093	0
4.09167	0	0	0	-0.000609162	0	-0.00138931	0	0	0	11.9724	26.8927	-6.36787	0.844814	0	-0.266011	0	-7.65413	0
4.1	0	0	0	-0.000609156	0	-0.00138931	0	0	0	4.19574	11.4781	-3.45804	-0.000609448	0	-0.00138973	0	0	0
4.10833	0	0	0	-0.000609151	0	-0.0013893	0	0	0	0	0	0	-0.000609443	0	-0.00138973	0	0	0
4.11667	0	0	0	-0.000609147	0	-0.00138929	0	0	0	0	0	0	-0.000609439	0	-0.00138972	0	0	0
4.125	0	0	0	-0.000609143	0	-0.00138929	0	0	0	0	0	0	-0.000609435	0	-0.00138972	0	0	0
4.13333	0	0	0	-0.000609139	0	-0.00138929	0	0	0	0	0	0	-0.000609431	0	-0.00138971	0	0	0
4.14167	0	0	0	-0.000609136	0	-0.00138928	0	0	0	0	0	0	-0.000609428	0	-0.00138971	0	0	0
4.15	0	0	0	-0.000609134	0	-0.00138928	0	0	0	0	0	0	-0.000609426	0	-0.00138971	0	0	0
4.15833	0	0	0	-0.000609132	0	-0.00138928	0	0	0	0	0	0	-0.000609424	0	-0.0013897	0	0	0
4.16667	0	0	0	-0.000609131	0	-0.00138928	0	0	0	0	0	0	-0.000609423	0	-0.0013897	0	0	0
4.175	0	0	0	-0.00060913	0	-0.00138928	0	0	0	0	0	0	-0.000609422	0	-0.0013897	0	0	0
4.18333	0	0	0	-0.00060913	0	-0.00138928	0	0	0	0	0	0	-0.000609421	0	-0.0013897	0	0	0
4.19167	0	0	0	-0.00060913	0	-0.00138928	0	0	0	0	0	0	-0.000609421	0	-0.0013897	0	0	0
4.2	0.641013	10.3298	0.887587	-0.000609129	0	-0.00138928	0	0	0	0	0	0	-0.000609421	0	-0.0013897	0	0	0
4.20833	1.74152	14.8475	-1.45253	-0.000609128	0	-0.00138927	0	0	0	0	0	0	-0.00060942	0	-0.0013897	0	0	0
4.21667	2.96173	35.4961	-4.55442	1.07348	0	-0.275528	-0	0.206269	-0	0	0	0	-0.000609419	0	-0.0013897	0	0	0
4.225	4.03619	100.462	-6.40462	1.12686	0	-0.320605	-0	10.2912	-0	0	0	0	-0.000609417	0	-0.0013897	0	0	0
4.23333	3.79638	254.072	-4.01067	1.12759	0	-0.335782	-0	19.9969	-0	0	0	0	-0.000609415	0	-0.0013897	0	0	0
4.24167	-8.34303	526.46	7.38931	1.11923	0	-0.341448	-0	20.4643	-0	0	0	0	-0.000609413	0	-0.00138969	0	0	0
4.25	-44.3022	874.276	31.7426	1.11016	0	-0.343375	-0	6.65502	-0	0	0	0	-0.000609411	0	-0.00138969	0	0	0
4.25833	-101.536	1169	64.7011	1.1005	0	-0.343908	0	-14.6358	0	0	0	0	-0.000609408	0	-0.00138969	0	0	0
4.26667	-160.198	1327.3	90.6737	1.08835	0	-0.344792	0	-27.1989	0	0	0	0	-0.000609405	0	-0.00138969	0	0	0
4.275	-194.274	1408.18	95.3335	1.07057	0	-0.34701	0	-20.5029	0	0	0	0	-0.000609401	0	-0.00138968	0	0	0
